<?xml version="1.0" standalone="no"?>
<!DOCTYPE svg PUBLIC "-//W3C//DTD SVG 20010904//EN"
 "http://www.w3.org/TR/2001/REC-SVG-20010904/DTD/svg10.dtd">
<svg version="1.0" xmlns="http://www.w3.org/2000/svg"
 width="500.000000pt" height="500.000000pt" viewBox="0 0 500.000000 500.000000"
 preserveAspectRatio="xMidYMid meet">
<metadata>
Created by potrace 1.14, written by Peter Selinger 2001-2017
</metadata>
<g transform="translate(0.000000,500.000000) scale(0.100000,-0.100000)"
fill="#000000" stroke="none">
<path d="M0 2500 l0 -2500 2500 0 2500 0 0 2399 c0 1910 -3 2400 -12 2404 -10
4 -10 6 0 6 9 1 12 27 12 96 l0 95 -1154 0 c-1005 -1 -1155 -3 -1160 -15 -3
-8 -10 -15 -15 -15 -6 0 -8 7 -5 15 5 13 -146 15 -1330 15 l-1336 0 0 -2500z
m3620 2470 c0 -5 -2 -10 -4 -10 -3 0 -8 5 -11 10 -3 6 -1 10 4 10 6 0 11 -4
11 -10z m-80 -50 c0 -5 -2 -10 -4 -10 -3 0 -8 5 -11 10 -3 6 -1 10 4 10 6 0
11 -4 11 -10z m-836 -69 c3 -5 -1 -11 -9 -14 -9 -4 -12 -1 -8 9 6 16 10 17 17
5z m937 -24 c-1 -12 -15 -9 -19 4 -3 6 1 10 8 8 6 -3 11 -8 11 -12z m-1311
-57 c0 -5 -4 -10 -10 -10 -5 0 -10 5 -10 10 0 6 5 10 10 10 6 0 10 -4 10 -10z
m1370 -20 c0 -5 -5 -10 -11 -10 -5 0 -7 5 -4 10 3 6 8 10 11 10 2 0 4 -4 4
-10z m-1470 -20 c0 -5 -4 -10 -10 -10 -5 0 -10 5 -10 10 0 6 5 10 10 10 6 0
10 -4 10 -10z m170 0 c0 -5 -4 -10 -10 -10 -5 0 -10 5 -10 10 0 6 5 10 10 10
6 0 10 -4 10 -10z m64 -101 c-3 -5 2 -9 10 -9 8 0 18 -5 21 -11 12 -18 -3 -22
-26 -5 -25 17 -35 48 -13 39 8 -3 11 -9 8 -14z m-159 -99 c3 -6 -1 -7 -9 -4
-18 7 -21 14 -7 14 6 0 13 -4 16 -10z m295 0 c0 -5 -2 -10 -4 -10 -3 0 -8 5
-11 10 -3 6 -1 10 4 10 6 0 11 -4 11 -10z m-35 -40 c3 -5 1 -10 -4 -10 -6 0
-11 5 -11 10 0 6 2 10 4 10 3 0 8 -4 11 -10z m1645 -66 c0 -8 -5 -12 -10 -9
-6 4 -8 11 -5 16 9 14 15 11 15 -7z m-260 -4 c0 -5 -4 -10 -10 -10 -5 0 -10 5
-10 10 0 6 5 10 10 10 6 0 10 -4 10 -10z m-1650 -47 c0 -15 -26 -17 -35 -4 -3
5 -1 12 4 16 6 3 7 13 4 23 -4 13 -2 13 10 -3 9 -11 17 -26 17 -32z m-1015 17
c0 -7 -6 -15 -12 -17 -8 -3 -13 4 -13 17 0 13 5 20 13 18 6 -3 12 -11 12 -18z
m1940 10 c3 -6 -1 -7 -9 -4 -18 7 -21 14 -7 14 6 0 13 -4 16 -10z m-995 -4 c0
-3 -4 -8 -10 -11 -5 -3 -10 -1 -10 4 0 6 5 11 10 11 6 0 10 -2 10 -4z m-180
-26 c0 -5 -4 -10 -10 -10 -5 0 -10 5 -10 10 0 6 5 10 10 10 6 0 10 -4 10 -10z
m200 0 c0 -5 -4 -10 -10 -10 -5 0 -10 5 -10 10 0 6 5 10 10 10 6 0 10 -4 10
-10z m96 -1 c10 -17 -13 -36 -27 -22 -12 12 -4 33 11 33 5 0 12 -5 16 -11z
m84 -3 c0 -2 -7 -9 -15 -16 -13 -11 -14 -10 -9 4 5 14 24 23 24 12z m584 -12
c5 -14 4 -15 -9 -4 -17 14 -19 20 -6 20 5 0 12 -7 15 -16z m-794 -4 c0 -5 -7
-7 -15 -4 -8 4 -15 8 -15 10 0 2 7 4 15 4 8 0 15 -4 15 -10z m610 0 c0 -5 -4
-10 -10 -10 -5 0 -10 5 -10 10 0 6 5 10 10 10 6 0 10 -4 10 -10z m-531 -38 c3
-1 -4 -9 -15 -18 -13 -11 -15 -17 -6 -20 6 -3 10 -10 6 -15 -3 -5 -1 -9 4 -9
6 0 13 7 16 16 3 9 11 12 18 8 7 -4 10 -4 6 1 -8 9 8 27 42 45 18 9 25 10 28
1 2 -6 8 -9 12 -6 5 3 15 -3 22 -13 15 -21 68 -38 68 -22 0 5 -5 10 -12 10 -9
0 -9 3 0 12 10 10 17 10 32 0 12 -7 20 -8 20 -2 0 6 9 6 23 1 12 -5 31 -5 42
-1 11 4 39 10 63 14 24 3 47 8 53 11 5 4 9 1 9 -5 0 -6 10 -8 24 -4 30 7 41
-20 30 -69 -4 -17 -8 -40 -8 -49 -1 -9 -4 -20 -8 -24 -5 -4 -8 -15 -8 -25 0
-10 -11 -38 -24 -62 l-23 -45 -33 16 c-17 8 -37 26 -42 38 -6 13 -14 21 -19
19 -4 -3 -5 4 -2 15 3 11 1 20 -5 20 -6 0 -13 14 -17 30 -4 17 -11 28 -15 25
-5 -3 -7 -13 -4 -23 5 -14 4 -15 -5 -2 -16 23 -24 4 -12 -31 10 -28 9 -34 -9
-46 -11 -8 -18 -19 -15 -24 4 -5 -1 -9 -10 -9 -9 0 -15 -6 -12 -12 2 -7 -20
-37 -50 -67 -41 -41 -61 -54 -84 -54 -16 0 -29 -3 -29 -7 0 -3 -7 -15 -16 -26
-8 -10 -13 -13 -9 -6 3 6 1 12 -4 12 -6 0 -11 -5 -11 -12 0 -6 -7 -4 -18 5
-10 10 -24 17 -31 17 -7 0 -9 5 -5 12 5 7 0 9 -14 6 -15 -4 -23 0 -27 13 -4
10 -13 19 -21 19 -7 0 -13 8 -12 18 3 36 -3 52 -18 52 -11 0 -14 6 -9 20 7 23
-10 27 -19 4 -3 -8 -10 -12 -16 -9 -7 4 -5 14 5 28 8 12 15 33 16 47 0 14 3
19 6 13 8 -22 23 -14 23 13 0 14 5 35 12 47 13 23 14 28 16 65 1 14 8 22 20
21 10 0 12 -3 4 -6 -13 -5 -7 -23 7 -23 5 0 16 12 25 26 16 24 16 25 0 22 -9
-2 -19 3 -21 10 -3 8 1 10 13 5 12 -4 15 -3 10 6 -7 11 6 6 43 -17z m1151 -23
c0 -5 -4 -9 -10 -9 -5 0 -10 7 -10 16 0 8 5 12 10 9 6 -3 10 -10 10 -16z
m1371 -2 c-13 -13 -26 -3 -16 12 3 6 11 8 17 5 6 -4 6 -10 -1 -17z m-1721 9
c0 -11 -19 -15 -25 -6 -3 5 1 10 9 10 9 0 16 -2 16 -4z m143 -21 c8 -18 -11
-31 -25 -17 -11 11 -3 32 12 32 4 0 10 -7 13 -15z m1011 -6 c-3 -5 -10 -7 -15
-3 -5 3 -7 10 -3 15 3 5 10 7 15 3 5 -3 7 -10 3 -15z m-3516 -23 c3 -12 -1
-17 -10 -14 -7 3 -15 13 -16 22 -3 12 1 17 10 14 7 -3 15 -13 16 -22z m1302
-5 c0 -5 -3 -17 -6 -25 -5 -13 -10 -14 -20 -6 -7 7 -10 18 -7 26 6 15 33 20
33 5z m1570 -1 c0 -5 -2 -10 -4 -10 -3 0 -8 5 -11 10 -3 6 -1 10 4 10 6 0 11
-4 11 -10z m-2450 -15 c0 -20 21 -30 31 -14 5 9 6 0 3 -21 -5 -31 -3 -37 19
-47 19 -9 24 -17 20 -32 -3 -12 -9 -18 -14 -15 -5 3 -9 -9 -9 -26 0 -25 4 -31
16 -26 8 3 12 2 9 -4 -10 -16 5 -11 33 10 14 11 28 17 31 13 11 -15 31 -13 31
2 0 8 -6 15 -12 16 -10 0 -10 2 0 6 14 6 17 43 2 43 -5 0 -7 6 -4 14 8 21 44
16 44 -6 0 -19 25 -25 35 -7 4 5 12 8 18 6 6 -2 19 6 28 17 16 20 16 20 28 -3
8 -15 18 -20 28 -16 9 3 20 0 24 -6 4 -7 13 -10 20 -7 26 10 33 3 30 -27 -4
-40 -13 -47 -45 -39 -16 4 -28 15 -32 30 -5 19 -12 24 -33 22 -22 -2 -26 -7
-28 -32 -1 -17 -3 -42 -5 -55 -2 -20 2 -25 26 -28 19 -3 39 3 58 17 15 11 28
17 28 13 0 -15 -40 -43 -60 -43 -11 0 -20 -5 -20 -10 0 -6 -11 -3 -25 6 -20
13 -28 14 -40 4 -8 -7 -12 -16 -9 -21 3 -5 0 -9 -6 -9 -7 0 -9 -8 -5 -21 5
-16 4 -19 -6 -14 -9 6 -11 3 -6 -9 4 -10 3 -15 -3 -11 -28 18 -62 -18 -35 -37
13 -9 13 -68 1 -68 -5 0 9 -14 32 -32 23 -18 42 -38 42 -44 0 -6 6 -17 14 -24
18 -14 10 -41 -9 -34 -9 4 -17 -7 -24 -33 -14 -50 -14 -53 6 -46 12 5 15 2 11
-9 -4 -9 -2 -20 3 -25 17 -17 -1 -42 -29 -39 -20 1 -26 7 -24 20 3 14 -1 17
-13 12 -9 -3 -21 -6 -26 -6 -6 0 -8 -4 -4 -9 3 -5 1 -12 -5 -16 -5 -3 -8 -16
-4 -28 4 -18 1 -23 -16 -24 -30 -2 -50 -27 -50 -62 0 -37 -15 -47 -46 -31 -19
11 -26 11 -39 0 -12 -10 -15 -10 -15 0 0 7 -7 10 -15 6 -8 -3 -15 -2 -15 3 0
4 -9 18 -19 30 -11 13 -22 28 -25 34 -5 9 -8 9 -12 0 -13 -28 -62 -3 -56 28 1
8 -77 49 -94 49 -8 0 -14 7 -14 16 0 11 -6 13 -19 9 -11 -3 -22 -1 -26 5 -3 5
-15 10 -26 10 -24 0 -25 18 -1 37 9 8 11 11 3 7 -11 -5 -13 -3 -8 10 4 10 7
22 7 28 0 6 7 8 15 5 11 -5 13 0 8 26 -8 43 -10 44 -25 12 l-12 -27 -13 48
c-7 27 -13 55 -13 62 0 18 21 15 37 -5 7 -10 13 -13 12 -8 -4 31 2 44 18 38
11 -4 14 -3 9 5 -4 7 -1 12 9 12 12 0 15 5 11 16 -3 9 -6 25 -6 35 0 14 -4 18
-12 13 -10 -6 -10 -5 0 8 10 12 9 18 -3 28 -8 7 -15 20 -15 30 0 10 -7 24 -16
31 -14 11 -18 10 -30 -6 -14 -18 -14 -18 -14 1 0 16 -2 17 -11 4 -9 -12 -10
-12 -5 3 3 10 6 27 6 38 0 17 6 19 45 15 37 -3 45 -1 50 15 4 10 10 19 15 19
5 0 6 38 3 84 -3 55 -1 86 6 90 6 4 11 3 11 -1 0 -5 15 -17 34 -27 27 -15 38
-16 56 -6 12 6 27 9 34 7 11 -4 47 8 95 32 25 12 51 10 51 -4z m1651 -18 c-10
-9 -11 -8 -5 6 3 10 9 15 12 12 3 -3 0 -11 -7 -18z m509 3 c0 -5 -4 -10 -10
-10 -5 0 -10 5 -10 10 0 6 5 10 10 10 6 0 10 -4 10 -10z m-1685 -30 c3 -5 1
-10 -4 -10 -6 0 -11 5 -11 10 0 6 2 10 4 10 3 0 8 -4 11 -10z m337 -35 c0 -5
-5 -11 -11 -13 -6 -2 -11 4 -11 13 0 9 5 15 11 13 6 -2 11 -8 11 -13z m-1772
-21 c0 -17 -26 -19 -36 -3 -7 12 15 31 28 23 4 -3 8 -12 8 -20z m570 16 c0 -5
-4 -10 -10 -10 -5 0 -10 5 -10 10 0 6 5 10 10 10 6 0 10 -4 10 -10z m1020 0
c0 -5 -4 -10 -10 -10 -5 0 -10 5 -10 10 0 6 5 10 10 10 6 0 10 -4 10 -10z
m-490 -15 c0 -8 -2 -15 -4 -15 -2 0 -6 7 -10 15 -3 8 -1 15 4 15 6 0 10 -7 10
-15z m2191 -8 c-1 -12 -15 -9 -19 4 -3 6 1 10 8 8 6 -3 11 -8 11 -12z m756
-43 c-9 -9 -28 6 -21 18 4 6 10 6 17 -1 6 -6 8 -13 4 -17z m-633 -24 c-6 -6
-10 -2 -11 12 -2 16 1 18 10 9 7 -7 8 -14 1 -21z m586 -70 c0 -5 -4 -10 -10
-10 -5 0 -10 5 -10 10 0 6 5 10 10 10 6 0 10 -4 10 -10z m-1600 -10 c0 -5 -4
-10 -10 -10 -5 0 -10 5 -10 10 0 6 5 10 10 10 6 0 10 -4 10 -10z m-2145 -20
c-3 -5 -10 -10 -16 -10 -5 0 -9 5 -9 10 0 6 7 10 16 10 8 0 12 -4 9 -10z m965
0 c0 -5 -2 -10 -4 -10 -3 0 -8 5 -11 10 -3 6 -1 10 4 10 6 0 11 -4 11 -10z
m137 -5 c0 -8 -4 -15 -9 -15 -4 0 -8 7 -8 15 0 8 4 15 8 15 5 0 9 -7 9 -15z
m-40 -17 c-3 -8 -6 -5 -6 6 -1 11 2 17 5 13 3 -3 4 -12 1 -19z m84 -11 c-13
-13 -26 -3 -16 12 3 6 11 8 17 5 6 -4 6 -10 -1 -17z m760 -10 c-10 -9 -11 -8
-5 6 3 10 9 15 12 12 3 -3 0 -11 -7 -18z m-1546 3 c3 -5 1 -10 -4 -10 -6 0
-11 5 -11 10 0 6 2 10 4 10 3 0 8 -4 11 -10z m1359 -5 c-4 -8 -10 -15 -16 -15
-5 0 -7 -4 -4 -9 6 -9 -23 -25 -31 -18 -13 13 18 46 54 56 1 1 0 -6 -3 -14z
m-681 -7 c4 -10 7 -10 14 -1 11 15 27 4 31 -22 16 -92 15 -98 -14 -122 -17
-13 -23 -23 -15 -23 22 0 3 -14 -23 -17 -24 -3 -43 21 -26 32 16 10 12 25 -6
25 -11 0 -15 6 -11 19 3 14 1 18 -10 14 -19 -7 -37 19 -20 29 9 6 9 8 0 8 -7
0 -13 7 -13 16 0 12 3 14 13 6 18 -15 63 9 59 31 -3 20 14 23 21 5z m-1173
-28 c0 -5 -2 -10 -4 -10 -3 0 -8 5 -11 10 -3 6 -1 10 4 10 6 0 11 -4 11 -10z
m1470 0 c0 -5 -5 -10 -11 -10 -5 0 -7 5 -4 10 3 6 8 10 11 10 2 0 4 -4 4 -10z
m435 0 c3 -5 -1 -10 -9 -10 -9 0 -16 5 -16 10 0 6 4 10 9 10 6 0 13 -4 16 -10z
m75 0 c0 -5 -6 -10 -14 -10 -8 0 -18 5 -21 10 -3 6 3 10 14 10 12 0 21 -4 21
-10z m700 -14 c14 -18 14 -18 -7 -6 -12 8 -19 18 -16 23 3 4 6 7 7 5 1 -2 8
-12 16 -22z m-2890 4 c0 -5 -4 -10 -10 -10 -5 0 -10 5 -10 10 0 6 5 10 10 10
6 0 10 -4 10 -10z m1247 4 c-3 -3 -12 -4 -19 -1 -8 3 -5 6 6 6 11 1 17 -2 13
-5z m25 -20 c-3 -17 -8 -22 -15 -15 -7 7 -6 15 3 26 17 20 18 19 12 -11z
m1303 16 c3 -5 -3 -10 -14 -10 -11 0 -23 5 -26 10 -3 6 3 10 14 10 11 0 23 -4
26 -10z m-505 -16 c0 -8 -6 -11 -15 -8 -8 4 -15 9 -15 13 0 4 7 8 15 8 8 0 15
-6 15 -13z m315 -14 c3 -5 -1 -10 -9 -10 -9 0 -16 5 -16 10 0 6 4 10 9 10 6 0
13 -4 16 -10z m-711 -35 c3 -8 1 -15 -4 -15 -6 0 -10 7 -10 15 0 8 2 15 4 15
2 0 6 -7 10 -15z m126 9 c0 -8 -19 -13 -24 -6 -3 5 1 9 9 9 8 0 15 -2 15 -3z
m245 -4 c-3 -5 -12 -10 -18 -10 -7 0 -6 4 3 10 19 12 23 12 15 0z m245 -5 c11
-13 10 -14 -4 -9 -9 3 -16 10 -16 15 0 13 6 11 20 -6z m650 5 c0 -5 -2 -10 -4
-10 -3 0 -8 5 -11 10 -3 6 -1 10 4 10 6 0 11 -4 11 -10z m1074 -5 c-4 -8 -8
-15 -10 -15 -2 0 -4 7 -4 15 0 8 4 15 10 15 5 0 7 -7 4 -15z m-2511 -2 c2 7 4
0 3 -15 -1 -22 -6 -28 -23 -28 -13 0 -23 3 -24 8 0 4 -2 15 -4 24 -2 14 1 15
20 8 16 -6 25 -5 28 3z m247 -3 c0 -5 -2 -10 -4 -10 -3 0 -8 5 -11 10 -3 6 -1
10 4 10 6 0 11 -4 11 -10z m-200 -20 c0 -5 -4 -10 -10 -10 -5 0 -10 5 -10 10
0 6 5 10 10 10 6 0 10 -4 10 -10z m312 -25 c-2 -12 1 -15 10 -10 10 6 11 5 1
-6 -14 -14 -17 -30 -5 -28 18 3 33 -2 28 -9 -2 -4 -19 -8 -38 -7 -27 0 -32 3
-30 20 2 11 8 21 13 23 5 2 1 14 -7 28 -16 24 -16 24 7 15 15 -5 23 -15 21
-26z m-126 0 c18 -14 17 -14 -13 -15 -31 0 -41 9 -26 23 10 10 17 9 39 -8z
m2244 -35 c0 -5 -4 -10 -10 -10 -5 0 -10 5 -10 10 0 6 5 10 10 10 6 0 10 -4
10 -10z m-2283 -19 c11 -17 9 -21 -9 -26 -24 -8 -42 13 -26 32 14 18 21 16 35
-6z m1833 9 c0 -5 -5 -10 -11 -10 -5 0 -7 5 -4 10 3 6 8 10 11 10 2 0 4 -4 4
-10z m-1910 -20 c0 -5 -4 -10 -10 -10 -5 0 -10 5 -10 10 0 6 5 10 10 10 6 0
10 -4 10 -10z m1110 -4 c0 -3 -4 -8 -10 -11 -5 -3 -10 -1 -10 4 0 6 5 11 10
11 6 0 10 -2 10 -4z m1144 -17 c-3 -5 -10 -7 -15 -3 -5 3 -7 10 -3 15 3 5 10
7 15 3 5 -3 7 -10 3 -15z m-193 -2 c-1 -12 -15 -9 -19 4 -3 6 1 10 8 8 6 -3
11 -8 11 -12z m-3031 -61 c0 -3 -4 -8 -10 -11 -5 -3 -10 -1 -10 4 0 6 5 11 10
11 6 0 10 -2 10 -4z m2620 -16 c0 -5 -4 -10 -10 -10 -5 0 -10 5 -10 10 0 6 5
10 10 10 6 0 10 -4 10 -10z m-1197 -56 c11 -11 -3 -24 -18 -18 -8 4 -12 10 -9
15 6 11 18 12 27 3z m-753 -45 c0 -20 -15 -26 -24 -10 -8 13 4 42 15 35 5 -3
9 -14 9 -25z m-529 -6 c13 -16 12 -17 -3 -4 -10 7 -18 15 -18 17 0 8 8 3 21
-13z m3329 -23 c0 -5 -2 -10 -4 -10 -3 0 -8 5 -11 10 -3 6 -1 10 4 10 6 0 11
-4 11 -10z m-135 -30 c-5 -8 -11 -8 -17 -2 -6 6 -7 16 -3 22 5 8 11 8 17 2 6
-6 7 -16 3 -22z m-2798 -35 c7 -20 -2 -29 -21 -22 -9 4 -13 13 -10 22 8 19 23
19 31 0z m173 -5 c0 -5 -4 -10 -10 -10 -5 0 -10 5 -10 10 0 6 5 10 10 10 6 0
10 -4 10 -10z m-775 -10 c3 -5 1 -10 -4 -10 -6 0 -11 5 -11 10 0 6 2 10 4 10
3 0 8 -4 11 -10z m3315 0 c0 -5 -4 -10 -10 -10 -5 0 -10 5 -10 10 0 6 5 10 10
10 6 0 10 -4 10 -10z m-3906 -115 c3 -9 0 -15 -9 -15 -9 0 -12 6 -9 15 4 8 7
15 9 15 2 0 5 -7 9 -15z m3593 -33 c-8 -8 -20 -11 -27 -7 -16 10 7 35 27 28
13 -5 13 -7 0 -21z m-1412 -22 c3 -5 1 -10 -4 -10 -6 0 -11 5 -11 10 0 6 2 10
4 10 3 0 8 -4 11 -10z m-1660 -330 c-5 -8 -11 -8 -17 -2 -6 6 -7 16 -3 22 5 8
11 8 17 2 6 -6 7 -16 3 -22z m2625 6 c0 -11 -19 -15 -25 -6 -3 5 1 10 9 10 9
0 16 -2 16 -4z m1334 -17 c-3 -5 -10 -7 -15 -3 -5 3 -7 10 -3 15 3 5 10 7 15
3 5 -3 7 -10 3 -15z m-894 7 c0 -3 -4 -8 -10 -11 -5 -3 -10 -1 -10 4 0 6 5 11
10 11 6 0 10 -2 10 -4z m-346 -47 c-3 -5 -10 -7 -15 -3 -5 3 -7 10 -3 15 3 5
10 7 15 3 5 -3 7 -10 3 -15z m196 1 c0 -5 -4 -10 -10 -10 -5 0 -10 5 -10 10 0
6 5 10 10 10 6 0 10 -4 10 -10z m70 -468 c0 -13 -12 -22 -22 -16 -10 6 -1 24
13 24 5 0 9 -4 9 -8z m-2140 -56 c0 -3 -4 -8 -10 -11 -5 -3 -10 -1 -10 4 0 6
5 11 10 11 6 0 10 -2 10 -4z m20 -146 c0 -5 -4 -10 -10 -10 -5 0 -10 5 -10 10
0 6 5 10 10 10 6 0 10 -4 10 -10z m2157 -26 c-9 -9 -28 6 -21 18 4 6 10 6 17
-1 6 -6 8 -13 4 -17z m-2097 -54 c0 -5 -4 -10 -10 -10 -5 0 -10 5 -10 10 0 6
5 10 10 10 6 0 10 -4 10 -10z m330 0 c0 -5 -5 -10 -11 -10 -5 0 -7 5 -4 10 3
6 8 10 11 10 2 0 4 -4 4 -10z m-600 -360 c0 -5 -4 -10 -10 -10 -5 0 -10 5 -10
10 0 6 5 10 10 10 6 0 10 -4 10 -10z m1390 -88 c0 -13 -12 -22 -22 -16 -10 6
-1 24 13 24 5 0 9 -4 9 -8z m-570 -28 c0 -8 -4 -12 -10 -9 -5 3 -10 10 -10 16
0 5 5 9 10 9 6 0 10 -7 10 -16z m-1530 -34 c0 -5 -4 -10 -10 -10 -5 0 -10 5
-10 10 0 6 5 10 10 10 6 0 10 -4 10 -10z m770 -120 c0 -5 -4 -10 -10 -10 -5 0
-10 5 -10 10 0 6 5 10 10 10 6 0 10 -4 10 -10z m754 -41 c-3 -5 -10 -7 -15 -3
-5 3 -7 10 -3 15 3 5 10 7 15 3 5 -3 7 -10 3 -15z m-44 -99 c0 -5 -4 -10 -10
-10 -5 0 -10 5 -10 10 0 6 5 10 10 10 6 0 10 -4 10 -10z m1515 -50 c-3 -5 -10
-10 -16 -10 -5 0 -9 5 -9 10 0 6 7 10 16 10 8 0 12 -4 9 -10z m-2145 -250 c0
-5 -4 -10 -10 -10 -5 0 -10 5 -10 10 0 6 5 10 10 10 6 0 10 -4 10 -10z m-106
-51 c-3 -5 -10 -7 -15 -3 -5 3 -7 10 -3 15 3 5 10 7 15 3 5 -3 7 -10 3 -15z
m-189 1 c3 -5 -1 -10 -10 -10 -9 0 -13 5 -10 10 3 6 8 10 10 10 2 0 7 -4 10
-10z m105 -44 c0 -3 -4 -8 -10 -11 -5 -3 -10 -1 -10 4 0 6 5 11 10 11 6 0 10
-2 10 -4z m2034 -97 c-3 -5 -10 -7 -15 -3 -5 3 -7 10 -3 15 3 5 10 7 15 3 5
-3 7 -10 3 -15z m196 11 c0 -5 -4 -10 -10 -10 -5 0 -10 5 -10 10 0 6 5 10 10
10 6 0 10 -4 10 -10z m-290 -50 c0 -5 -4 -10 -10 -10 -5 0 -10 5 -10 10 0 6 5
10 10 10 6 0 10 -4 10 -10z m-1233 -26 c-9 -9 -28 6 -21 18 4 6 10 6 17 -1 6
-6 8 -13 4 -17z m-77 -48 c0 -3 -4 -8 -10 -11 -5 -3 -10 -1 -10 4 0 6 5 11 10
11 6 0 10 -2 10 -4z m-835 -176 c3 -5 -1 -10 -9 -10 -9 0 -16 5 -16 10 0 6 4
10 9 10 6 0 13 -4 16 -10z m2992 -316 c-9 -9 -28 6 -21 18 4 6 10 6 17 -1 6
-6 8 -13 4 -17z m-2927 -14 c0 -5 -2 -10 -4 -10 -3 0 -8 5 -11 10 -3 6 -1 10
4 10 6 0 11 -4 11 -10z m827 -46 c-9 -9 -28 6 -21 18 4 6 10 6 17 -1 6 -6 8
-13 4 -17z m-727 6 c0 -5 -4 -10 -10 -10 -5 0 -10 5 -10 10 0 6 5 10 10 10 6
0 10 -4 10 -10z m200 -4 c0 -11 -19 -15 -25 -6 -3 5 1 10 9 10 9 0 16 -2 16
-4z"/>
<path d="M1340 4075 c0 -8 2 -15 4 -15 2 0 6 7 10 15 3 8 1 15 -4 15 -6 0 -10
-7 -10 -15z"/>
<path d="M1216 3932 c-12 -20 2 -48 24 -48 23 0 26 11 6 23 -7 4 -15 15 -18
23 -3 10 -6 11 -12 2z"/>
<path d="M1280 3890 c0 -5 5 -10 11 -10 5 0 7 5 4 10 -3 6 -8 10 -11 10 -2 0
-4 -4 -4 -10z"/>
<path d="M1117 3774 c-3 -4 -2 -15 4 -25 7 -15 16 -18 37 -13 30 7 65 34 44
34 -7 0 -12 -4 -12 -10 0 -15 -19 -12 -36 5 -17 16 -27 19 -37 9z"/>
<path d="M1157 3713 c-4 -3 -7 -11 -7 -17 0 -6 5 -5 12 2 6 6 9 14 7 17 -3 3
-9 2 -12 -2z"/>
</g>
</svg>
