<?xml version="1.0" encoding="UTF-8"?><svg id="Calque_1" xmlns="http://www.w3.org/2000/svg" viewBox="0 0 284.22 284.21"><defs><style>.cls-1{fill:#ED8FB6;}.cls-2{fill: transparent;}
</style></defs><path class="cls-2" d="M284.22,225.84c0,32.25-26.13,58.38-58.38,58.38H58.39c-32.25,0-58.39-26.13-58.39-58.38V58.38C0,26.13,26.14,0,58.39,0H225.85c32.24,0,58.38,26.13,58.38,58.38V225.84Z"/><g id="Internet"><path class="cls-1" d="M142.11,154.14l92.33-74.32c-1.9-1.48-4.22-2.37-6.73-2.37H56.51c-2.51,0-4.83,.89-6.73,2.37l92.33,74.32Z"/><g><path class="cls-1" d="M238.94,197.23c.22-.96,.37-1.95,.37-2.99V91.52l-55.29,44.5,54.92,61.2Z"/><path class="cls-1" d="M174.52,143.67l-32.41,26.09-32.41-26.09-56.18,62.61c.96,.28,1.95,.48,3,.48H227.71c1.04,0,2.03-.2,3-.48l-56.18-62.61Z"/><path class="cls-1" d="M100.2,136.03l-55.29-44.5v102.72c0,1.03,.15,2.02,.37,2.99l54.92-61.2Z"/></g></g></svg>