<?xml version="1.0" encoding="UTF-8"?><svg id="Calque_1" xmlns="http://www.w3.org/2000/svg" viewBox="0 0 284.22 284.21"><defs><style>.cls-1{fill:#B3B3B3;}.cls-2{fill: transparent;}
</style></defs><path class="cls-2" d="M284.22,225.84c0,32.24-26.13,58.38-58.38,58.38H58.39c-32.25,0-58.39-26.13-58.39-58.38V58.38C0,26.13,26.14,0,58.39,0H225.84c32.24,0,58.38,26.13,58.38,58.38V225.84Z"/><g><path class="cls-1" d="M45.74,100.98h41.32V233.89H45.74V100.98Zm20.66-66.07c13.2,0,23.94,10.74,23.94,23.97s-10.73,23.93-23.94,23.93-23.94-10.71-23.94-23.93,10.7-23.97,23.94-23.97"/><path class="cls-1" d="M112.96,100.98h39.63v18.18h.57c5.51-10.46,18.99-21.47,39.08-21.47,41.84,0,49.56,27.52,49.56,63.3v72.9h-41.3v-64.64c0-15.41-.27-35.25-21.47-35.25s-24.77,16.81-24.77,34.14v65.74h-41.3V100.98Z"/></g></svg>