<?xml version="1.0" encoding="UTF-8"?><svg id="Calque_1" xmlns="http://www.w3.org/2000/svg" viewBox="0 0 284.22 284.21"><defs><style>.cls-1{fill:#B3B3B3;}.cls-2{fill: transparent;}
</style></defs><path class="cls-2" d="M284.22,225.84c0,32.25-26.13,58.38-58.38,58.38H58.39c-32.25,0-58.39-26.13-58.39-58.38V58.38C0,26.13,26.14,0,58.39,0H225.85c32.24,0,58.38,26.13,58.38,58.38V225.84Z"/><path id="Internet" class="cls-1" d="M214.69,211.86c.18-2.46-.74-4.77-2.76-6.97l-28.11-29.22-.17-.05c-.97-1.02-2.44-1.8-4.41-2.35-2.79-.78-5.48-.52-8.09,.75l-12.75,7.35c-.3,.17-.73,.26-1.3,.29-.57,.03-.97,.01-1.21-.05l-2.05-1.04c-1.38-.69-3.23-2.12-5.57-4.27-2.34-2.16-5.14-5.28-8.38-9.37-3.24-4.09-6.74-9.54-10.47-16.34-3.89-6.71-6.73-12.48-8.52-17.29-1.79-4.82-2.99-8.81-3.61-11.99-.75-3.59-1.02-6.67-.81-9.24,.1-.35,.3-.76,.62-1.24,.32-.48,.63-.8,.93-.96l10.92-6.16c1.93-1.09,3.44-2.68,4.51-4.75,1.08-2.08,1.35-4.19,.83-6.34l-8.81-40.57c-.46-1.5-1.15-2.85-2.07-4.04-.92-1.2-2.13-2-3.64-2.42-2.1-.58-4.18-.29-6.26,.89l-29.62,16.73c-1.45,.73-2.82,1.81-4.1,3.27-2.1,2.43-3.4,5.91-4.1,7.96-.7,2.06-1.27,5-1.7,8.82-.44,3.82-.55,8.49-.33,13.99,.22,5.51,1.09,11.82,2.62,18.94,1.53,7.12,3.94,15.09,7.25,23.89,3.31,8.81,7.91,18.35,13.81,28.63,7.35,13.18,14.73,24,22.14,32.45,7.41,8.44,14.28,15.14,20.6,20.09,6.32,4.95,11.84,8.49,16.57,10.62,4.73,2.13,10.5,4.28,13.76,4.86,1.6,.29,3.49,.16,5.4-.19,1.91-.34,3.55-.95,4.92-1.82l29.58-16.56c2.52-1.42,3.98-3.52,4.38-6.29Z"/></svg>