<?xml version="1.0" encoding="UTF-8"?><svg id="Calque_1" xmlns="http://www.w3.org/2000/svg" viewBox="0 0 279.31 279.31">
<defs><style>.cls-1{fill:#ED8FB6;}.cls-2{fill: transparent;}</style>
</defs><rect class="cls-2" width="279.31" height="279.31" rx="54.39" ry="54.39"/><g><path class="cls-1" d="M182.2,36.29H94.05c-33.24,0-60.19,26.95-60.19,60.19v88.14c0,33.24,26.95,60.19,60.19,60.19h88.15c33.24,0,60.19-26.95,60.19-60.19V96.47c0-33.24-26.95-60.19-60.19-60.19m40.98,149.88c0,22.06-17.89,39.95-39.95,39.95H93.02c-22.06,0-39.95-17.89-39.95-39.95V95.96c0-22.07,17.89-39.95,39.95-39.95h90.21c22.07,0,39.95,17.89,39.95,39.95v90.21Z"/><path class="cls-1" d="M138.13,86.96c-29.88,0-54.1,24.22-54.1,54.1s24.22,54.1,54.1,54.1,54.11-24.22,54.11-54.1-24.22-54.1-54.11-54.1m0,89.17c-19.37,0-35.07-15.7-35.07-35.07s15.7-35.07,35.07-35.07,35.07,15.7,35.07,35.07-15.7,35.07-35.07,35.07"/><path class="cls-1" d="M194.04,72.3c-6.96,0-12.61,5.64-12.61,12.6s5.64,12.61,12.61,12.61,12.6-5.64,12.6-12.61-5.64-12.6-12.6-12.6"/></g></svg>